<?xml version="1.0" encoding="UTF-8" standalone="no"?><svg xmlns="http://www.w3.org/2000/svg" xmlns:xlink="http://www.w3.org/1999/xlink" fill="#ffffff" height="26" preserveAspectRatio="xMidYMid meet" version="1" viewBox="2.0 2.0 28.0 26.0" width="28" zoomAndPan="magnify"><g data-name="7" id="change1_1"><path d="M29,28H3a1,1,0,0,1-1-1V3A1,1,0,0,1,3,2H29a1,1,0,0,1,1,1V27A1,1,0,0,1,29,28ZM4,26H28V4H4Z" fill="inherit"/><path d="M29,10H3A1,1,0,0,1,3,8H29a1,1,0,0,1,0,2Z" fill="inherit"/><path d="M20,7a1.052,1.052,0,0,1-.71-.29A1.033,1.033,0,0,1,19,6a1,1,0,1,1,2,0,1.033,1.033,0,0,1-.29.71c-.05.04-.1.08-.16.12a.556.556,0,0,1-.17.09.636.636,0,0,1-.18.06A1.355,1.355,0,0,1,20,7Z" fill="inherit"/><path d="M23,7a1.355,1.355,0,0,1-.2-.02.636.636,0,0,1-.18-.06.556.556,0,0,1-.17-.09c-.06-.04-.11-.08-.16-.12A1.033,1.033,0,0,1,22,6a1,1,0,1,1,2,0,1.033,1.033,0,0,1-.29.71A1.052,1.052,0,0,1,23,7Z" fill="inherit"/><path d="M26,7a1.052,1.052,0,0,1-.71-.29l-.12-.15a.757.757,0,0,1-.09-.18.636.636,0,0,1-.06-.18A1.355,1.355,0,0,1,25,6a1,1,0,1,1,2,0,1.033,1.033,0,0,1-.29.71A1.052,1.052,0,0,1,26,7Z" fill="inherit"/><path d="M11.232,17.384h.024l.527-2.733h1.141L11.819,19h-.981l-.808-2.508h-.024L9.2,19H8.222l-1.1-4.349H8.258l.534,2.721h.024l.812-2.721h.784Z" fill="inherit" stroke="#ffffff" stroke-linecap="round" stroke-linejoin="round" stroke-width="0.5"/><path d="M17.289,17.384h.024l.526-2.733H18.98L17.875,19H16.9l-.808-2.508h-.024L15.255,19h-.977l-1.105-4.349h1.141l.535,2.721h.024l.812-2.721h.784Z" fill="inherit" stroke="#ffffff" stroke-linecap="round" stroke-linejoin="round" stroke-width="0.5"/><path d="M23.345,17.384h.025l.526-2.733h1.141L23.932,19h-.98l-.808-2.508H22.12L21.312,19h-.977L19.23,14.651h1.141l.535,2.721h.024l.812-2.721h.783Z" fill="inherit" stroke="#ffffff" stroke-linecap="round" stroke-linejoin="round" stroke-width="0.5"/></g></svg>